<svg xmlns="http://www.w3.org/2000/svg" viewBox="0 0 400 300" width="100%" height="100%">
  <rect x="40" y="100" width="320" height="120" rx="10" fill="#111" stroke="#333" stroke-width="2"/>
  
  <g fill="#222" stroke="#444" stroke-width="1">
    <!-- Row 1 -->
    <rect x="50" y="110" width="20" height="20" rx="3" fill="#ff0000" fill-opacity="0.2"/>
    <rect x="75" y="110" width="20" height="20" rx="3" fill="#ff7f00" fill-opacity="0.2"/>
    <rect x="100" y="110" width="20" height="20" rx="3" fill="#ffff00" fill-opacity="0.2"/>
    <rect x="125" y="110" width="20" height="20" rx="3" fill="#00ff00" fill-opacity="0.2"/>
    <rect x="150" y="110" width="20" height="20" rx="3" fill="#0000ff" fill-opacity="0.2"/>
    <rect x="175" y="110" width="20" height="20" rx="3" fill="#4b0082" fill-opacity="0.2"/>
    <rect x="200" y="110" width="20" height="20" rx="3" fill="#9400d3" fill-opacity="0.2"/>
    <rect x="225" y="110" width="20" height="20" rx="3" fill="#ff0000" fill-opacity="0.2"/>
    <rect x="250" y="110" width="20" height="20" rx="3" fill="#ff7f00" fill-opacity="0.2"/>
    <rect x="275" y="110" width="20" height="20" rx="3" fill="#ffff00" fill-opacity="0.2"/>
    <rect x="300" y="110" width="50" height="20" rx="3" fill="#00ff00" fill-opacity="0.2"/>
    
    <!-- Row 2 -->
    <rect x="50" y="135" width="30" height="20" rx="3"/>
    <rect x="85" y="135" width="20" height="20" rx="3"/>
    <rect x="110" y="135" width="20" height="20" rx="3"/>
    <rect x="135" y="135" width="20" height="20" rx="3"/>
    <rect x="160" y="135" width="20" height="20" rx="3"/>
    <rect x="185" y="135" width="20" height="20" rx="3"/>
    <rect x="210" y="135" width="20" height="20" rx="3"/>
    <rect x="235" y="135" width="20" height="20" rx="3"/>
    <rect x="260" y="135" width="20" height="20" rx="3"/>
    <rect x="285" y="135" width="20" height="20" rx="3"/>
    <rect x="310" y="135" width="40" height="20" rx="3"/>
    
    <!-- Row 3 -->
    <rect x="50" y="160" width="40" height="20" rx="3"/>
    <rect x="95" y="160" width="20" height="20" rx="3"/>
    <rect x="120" y="160" width="20" height="20" rx="3"/>
    <rect x="145" y="160" width="20" height="20" rx="3"/>
    <rect x="170" y="160" width="20" height="20" rx="3"/>
    <rect x="195" y="160" width="20" height="20" rx="3"/>
    <rect x="220" y="160" width="20" height="20" rx="3"/>
    <rect x="245" y="160" width="20" height="20" rx="3"/>
    <rect x="270" y="160" width="20" height="20" rx="3"/>
    <rect x="295" y="160" width="55" height="20" rx="3"/>
    
    <!-- Row 4 -->
    <rect x="50" y="185" width="25" height="20" rx="3"/>
    <rect x="80" y="185" width="25" height="20" rx="3"/>
    <rect x="110" y="185" width="160" height="20" rx="3"/>
    <rect x="275" y="185" width="25" height="20" rx="3"/>
    <rect x="305" y="185" width="45" height="20" rx="3"/>
  </g>
  <text x="200" y="80" font-family="sans-serif" font-size="24" font-weight="bold" fill="#fff" text-anchor="middle">Teclado Mecânico RGB</text>
</svg>
